HIERARCHY
ROOT Root
{
  OFFSET 0.0 0.0 0.0
  CHANNELS 6 Xposition Yposition Zposition Zrotation Yrotation Xrotation
  JOINT Hips
  {
    OFFSET 0.0 100.0 0.0
    CHANNELS 6 Xposition Yposition Zposition Zrotation Yrotation Xrotation
    JOINT Spine1
    {
      OFFSET 5.003913 -0.037094 -0.013727
      CHANNELS 3 Zrotation Yrotation Xrotation
      JOINT Spine2
      {
        OFFSET 7.125363 -1e-06 0.0
        CHANNELS 3 Zrotation Yrotation Xrotation
        JOINT Chest
        {
          OFFSET 7.594027 1e-06 0.0
          CHANNELS 3 Zrotation Yrotation Xrotation
          JOINT Neck1
          {
            OFFSET 26.313086 -0.460272 -0.181672
            CHANNELS 3 Zrotation Yrotation Xrotation
            JOINT Neck2
            {
              OFFSET 8.04591 0.0 0.0
              CHANNELS 3 Zrotation Yrotation Xrotation
              JOINT Head
              {
                OFFSET 6.432777 0.0 0.0
                CHANNELS 3 Zrotation Yrotation Xrotation
                JOINT HeadEnd
                {
                  OFFSET 16.169769 0.06451 0.00362
                  CHANNELS 3 Zrotation Yrotation Xrotation
                }
                JOINT Jaw
                {
                  OFFSET 0.108738 3.12938 0.002639
                  CHANNELS 3 Zrotation Yrotation Xrotation
                }
                JOINT LeftEye
                {
                  OFFSET 4.451729 8.166359 3.206392
                  CHANNELS 3 Zrotation Yrotation Xrotation
                }
                JOINT RightEye
                {
                  OFFSET 4.43689 8.135758 -3.222429
                  CHANNELS 3 Zrotation Yrotation Xrotation
                }
              }
            }
          }
          JOINT LeftShoulder
          {
            OFFSET 23.218927 5.195579 1.621656
            CHANNELS 3 Zrotation Yrotation Xrotation
            JOINT LeftArm
            {
              OFFSET 15.902122 2e-06 -2e-06
              CHANNELS 3 Zrotation Yrotation Xrotation
              JOINT LeftForeArm
              {
                OFFSET 28.739304 0.0 -1e-06
                CHANNELS 3 Zrotation Yrotation Xrotation
                JOINT LeftHand
                {
                  OFFSET 27.093979 -4e-06 0.0
                  CHANNELS 3 Zrotation Yrotation Xrotation
                  JOINT LeftHandThumb1
                  {
                    OFFSET 2.276787 3.380274 0.83384
                    CHANNELS 3 Zrotation Yrotation Xrotation
                    JOINT LeftHandThumb2
                    {
                      OFFSET 4.705307 -2e-06 -1e-06
                      CHANNELS 3 Zrotation Yrotation Xrotation
                      JOINT LeftHandThumb3
                      {
                        OFFSET 2.798515 0.0 3e-06
                        CHANNELS 3 Zrotation Yrotation Xrotation
                        JOINT LeftHandThumbEnd
                        {
                          OFFSET 3.180786 5e-06 -4e-06
                          CHANNELS 3 Zrotation Yrotation Xrotation
                        }
                      }
                    }
                  }
                  JOINT LeftHandIndex1
                  {
                    OFFSET 3.24778 2.352677 0.137192
                    CHANNELS 3 Zrotation Yrotation Xrotation
                    JOINT LeftHandIndex2
                    {
                      OFFSET 6.367104 1e-06 0.0
                      CHANNELS 3 Zrotation Yrotation Xrotation
                      JOINT LeftHandIndex3
                      {
                        OFFSET 3.662361 0.0 0.0
                        CHANNELS 3 Zrotation Yrotation Xrotation
                        JOINT LeftHandIndex4
                        {
                          OFFSET 2.329239 4e-06 -4e-06
                          CHANNELS 3 Zrotation Yrotation Xrotation
                          JOINT LeftHandIndexEnd
                          {
                            OFFSET 2.767822 0.0 0.0
                            CHANNELS 3 Zrotation Yrotation Xrotation
                          }
                        }
                      }
                    }
                  }
                  JOINT LeftHandMiddle1
                  {
                    OFFSET 3.163612 0.945023 -0.406112
                    CHANNELS 3 Zrotation Yrotation Xrotation
                    JOINT LeftHandMiddle2
                    {
                      OFFSET 6.276794 3e-06 0.0
                      CHANNELS 3 Zrotation Yrotation Xrotation
                      JOINT LeftHandMiddle3
                      {
                        OFFSET 4.356522 -1e-06 4e-06
                        CHANNELS 3 Zrotation Yrotation Xrotation
                        JOINT LeftHandMiddle4
                        {
                          OFFSET 2.996872 0.0 8e-06
                          CHANNELS 3 Zrotation Yrotation Xrotation
                          JOINT LeftHandMiddleEnd
                          {
                            OFFSET 2.323257 3e-06 -4e-06
                            CHANNELS 3 Zrotation Yrotation Xrotation
                          }
                        }
                      }
                    }
                  }
                  JOINT LeftHandRing1
                  {
                    OFFSET 2.882607 -0.309162 0.107445
                    CHANNELS 3 Zrotation Yrotation Xrotation
                    JOINT LeftHandRing2
                    {
                      OFFSET 6.033195 0.0 4e-06
                      CHANNELS 3 Zrotation Yrotation Xrotation
                      JOINT LeftHandRing3
                      {
                        OFFSET 4.350578 3e-06 0.0
                        CHANNELS 3 Zrotation Yrotation Xrotation
                        JOINT LeftHandRing4
                        {
                          OFFSET 2.651321 1e-06 -7e-06
                          CHANNELS 3 Zrotation Yrotation Xrotation
                          JOINT LeftHandRingEnd
                          {
                            OFFSET 1.937668 1e-06 -4e-06
                            CHANNELS 3 Zrotation Yrotation Xrotation
                          }
                        }
                      }
                    }
                  }
                  JOINT LeftHandPinky1
                  {
                    OFFSET 2.865311 -1.525436 0.575687
                    CHANNELS 3 Zrotation Yrotation Xrotation
                    JOINT LeftHandPinky2
                    {
                      OFFSET 5.549362 1e-06 -8e-06
                      CHANNELS 3 Zrotation Yrotation Xrotation
                      JOINT LeftHandPinky3
                      {
                        OFFSET 3.070969 0.0 -4e-06
                        CHANNELS 3 Zrotation Yrotation Xrotation
                        JOINT LeftHandPinky4
                        {
                          OFFSET 1.549675 1e-06 0.0
                          CHANNELS 3 Zrotation Yrotation Xrotation
                          JOINT LeftHandPinkyEnd
                          {
                            OFFSET 1.952118 0.0 0.0
                            CHANNELS 3 Zrotation Yrotation Xrotation
                          }
                        }
                      }
                    }
                  }
                }
              }
            }
          }
          JOINT RightShoulder
          {
            OFFSET 23.161718 5.296122 -1.380114
            CHANNELS 3 Zrotation Yrotation Xrotation
            JOINT RightArm
            {
              OFFSET -16.027195 -2e-06 1.1e-05
              CHANNELS 3 Zrotation Yrotation Xrotation
              JOINT RightForeArm
              {
                OFFSET -28.736641 4e-06 2e-06
                CHANNELS 3 Zrotation Yrotation Xrotation
                JOINT RightHand
                {
                  OFFSET -27.133617 6e-06 0.0
                  CHANNELS 3 Zrotation Yrotation Xrotation
                  JOINT RightHandThumb1
                  {
                    OFFSET -2.274328 -3.351035 -0.83067
                    CHANNELS 3 Zrotation Yrotation Xrotation
                    JOINT RightHandThumb2
                    {
                      OFFSET -4.703592 -3e-06 2e-06
                      CHANNELS 3 Zrotation Yrotation Xrotation
                      JOINT RightHandThumb3
                      {
                        OFFSET -2.794937 -4e-06 -3e-06
                        CHANNELS 3 Zrotation Yrotation Xrotation
                        JOINT RightHandThumbEnd
                        {
                          OFFSET -3.183853 4e-06 1e-06
                          CHANNELS 3 Zrotation Yrotation Xrotation
                        }
                      }
                    }
                  }
                  JOINT RightHandIndex1
                  {
                    OFFSET -3.253498 -2.33755 -0.127667
                    CHANNELS 3 Zrotation Yrotation Xrotation
                    JOINT RightHandIndex2
                    {
                      OFFSET -6.344433 0.0 0.0
                      CHANNELS 3 Zrotation Yrotation Xrotation
                      JOINT RightHandIndex3
                      {
                        OFFSET -3.654869 0.0 -8e-06
                        CHANNELS 3 Zrotation Yrotation Xrotation
                        JOINT RightHandIndex4
                        {
                          OFFSET -2.327587 -1e-06 0.0
                          CHANNELS 3 Zrotation Yrotation Xrotation
                          JOINT RightHandIndexEnd
                          {
                            OFFSET -2.770004 3e-06 8e-06
                            CHANNELS 3 Zrotation Yrotation Xrotation
                          }
                        }
                      }
                    }
                  }
                  JOINT RightHandMiddle1
                  {
                    OFFSET -3.168224 -0.944764 0.411762
                    CHANNELS 3 Zrotation Yrotation Xrotation
                    JOINT RightHandMiddle2
                    {
                      OFFSET -6.266689 -1e-06 -4e-06
                      CHANNELS 3 Zrotation Yrotation Xrotation
                      JOINT RightHandMiddle3
                      {
                        OFFSET -4.348904 0.0 0.0
                        CHANNELS 3 Zrotation Yrotation Xrotation
                        JOINT RightHandMiddle4
                        {
                          OFFSET -3.000237 2e-06 -4e-06
                          CHANNELS 3 Zrotation Yrotation Xrotation
                          JOINT RightHandMiddleEnd
                          {
                            OFFSET -2.32148 -4e-06 -4e-06
                            CHANNELS 3 Zrotation Yrotation Xrotation
                          }
                        }
                      }
                    }
                  }
                  JOINT RightHandRing1
                  {
                    OFFSET -2.885654 0.293261 -0.119232
                    CHANNELS 3 Zrotation Yrotation Xrotation
                    JOINT RightHandRing2
                    {
                      OFFSET -6.032833 -1e-06 -4e-06
                      CHANNELS 3 Zrotation Yrotation Xrotation
                      JOINT RightHandRing3
                      {
                        OFFSET -4.33881 0.0 -4e-06
                        CHANNELS 3 Zrotation Yrotation Xrotation
                        JOINT RightHandRing4
                        {
                          OFFSET -2.654903 -4e-06 -4e-06
                          CHANNELS 3 Zrotation Yrotation Xrotation
                          JOINT RightHandRingEnd
                          {
                            OFFSET -1.935123 0.0 4e-06
                            CHANNELS 3 Zrotation Yrotation Xrotation
                          }
                        }
                      }
                    }
                  }
                  JOINT RightHandPinky1
                  {
                    OFFSET -2.866241 1.503903 -0.60527
                    CHANNELS 3 Zrotation Yrotation Xrotation
                    JOINT RightHandPinky2
                    {
                      OFFSET -5.553177 -1e-06 0.0
                      CHANNELS 3 Zrotation Yrotation Xrotation
                      JOINT RightHandPinky3
                      {
                        OFFSET -3.062664 -1e-06 -4e-06
                        CHANNELS 3 Zrotation Yrotation Xrotation
                        JOINT RightHandPinky4
                        {
                          OFFSET -1.546532 2e-06 4e-06
                          CHANNELS 3 Zrotation Yrotation Xrotation
                          JOINT RightHandPinkyEnd
                          {
                            OFFSET -1.952339 0.0 -4e-06
                            CHANNELS 3 Zrotation Yrotation Xrotation
                          }
                        }
                      }
                    }
                  }
                }
              }
            }
          }
        }
      }
    }
    JOINT LeftLeg
    {
      OFFSET -8.443107 2.567604 10.043214
      CHANNELS 3 Zrotation Yrotation Xrotation
      JOINT LeftShin
      {
        OFFSET 43.229202 1e-06 -1e-06
        CHANNELS 3 Zrotation Yrotation Xrotation
        JOINT LeftFoot
        {
          OFFSET 42.298607 1e-06 1e-06
          CHANNELS 3 Zrotation Yrotation Xrotation
          JOINT LeftToeBase
          {
            OFFSET 14.165863 1e-06 0.0
            CHANNELS 3 Zrotation Yrotation Xrotation
            JOINT LeftToeEnd
            {
              OFFSET 6.714096 -0.234461 0.0
              CHANNELS 3 Zrotation Yrotation Xrotation
            }
          }
        }
      }
    }
    JOINT RightLeg
    {
      OFFSET -8.303924 2.592729 -10.047277
      CHANNELS 3 Zrotation Yrotation Xrotation
      JOINT RightShin
      {
        OFFSET -43.369686 0.0 0.0
        CHANNELS 3 Zrotation Yrotation Xrotation
        JOINT RightFoot
        {
          OFFSET -42.260784 4e-06 3e-06
          CHANNELS 3 Zrotation Yrotation Xrotation
          JOINT RightToeBase
          {
            OFFSET -14.222237 -2e-06 -2e-06
            CHANNELS 3 Zrotation Yrotation Xrotation
            JOINT RightToeEnd
            {
              OFFSET -6.660072 0.232574 -1e-06
              CHANNELS 3 Zrotation Yrotation Xrotation
            }
          }
        }
      }
    }
  }
}
MOTION
Frames: 4
Frame Time: 0.03333333333333333
0.0 0.0 0.0 0.0 -0.0 0.0 2.59409 94.46743 -2.401504 94.050575 -4.23926 88.601898 -3.539712 -4.512144 -0.097585 -11.858482 -1.294942 0.288265 13.992607 -0.889422 -1.510582 14.91118 5.602566 1.666 -2.770909 -1.008425 -4.625718 -30.821468 -2.822514 -5.687667 7e-06 -0.0 0.0 -0.146785 0.000629 -0.05979 -0.165198 -0.00311 -0.05334 -0.116167 -0.002626 -0.074272 -52.51442 -71.264702 60.673897 -8.245423 -13.48781 -10.735119 13.417647 -0.425342 -0.36034 -15.278611 4.92846 -6.995368 17.63666 -26.322927 52.411171 -19.466642 -14.395638 29.410389 1.1e-05 -8.774848 2e-06 15.978498 -18.787079 6.025838 -0.609773 -1.795653 -3.889324 -4.80711 -11.046869 -2.937819 -5.2e-05 -20.976185 6.9e-05 -5.020101 -25.033834 -4.031818 7e-06 2e-06 -0.0 -10.634546 -5.686987 -3.565573 10.573264 -17.923038 -3.113862 -3.4e-05 -13.821324 3.3e-05 -0.501906 -31.181883 -4.02696 -11.349387 -58.636074 6.921599 -13.982728 -7.150219 -2.875019 13.772745 -8.401516 -3.218231 0.347616 -34.211872 0.771765 -0.963099 -17.733582 2.621063 -1e-06 0.0 -1e-06 -17.346468 -20.095282 -4.201715 21.757601 -1.638353 3.866428 -1.2e-05 -6.338878 1.2e-05 -1.697664 -22.592009 -6.193993 -2e-06 -7e-06 -0.0 103.165573 -75.375031 83.643669 0.086353 -8.811124 -22.52289 13.790317 0.478702 -0.090037 -3.109496 7.17791 -6.538114 22.182161 -20.375898 49.933212 -16.701864 -16.743578 28.47653 3.7e-05 -12.690689 -1e-06 15.045631 -17.527308 3.036096 -0.105919 -1.513864 -4.275877 -5.039079 -5.612936 -2.953547 -3.3e-05 -11.020673 1.3e-05 -6.111434 -15.895638 -3.84046 -0.0 0.0 2e-06 -10.283408 -5.680337 -4.34182 11.028316 -11.302485 -2.372633 -1.384333 -14.238781 -6.320138 -0.625561 -26.924686 -3.827644 -4.686487 -49.526718 -3.787722 -13.708576 -7.363541 -3.720908 18.141201 -14.052831 -3.242679 -4.5e-05 -18.787529 -2.2e-05 -0.429729 -8.456192 2.5555 -1e-06 1e-06 2e-06 -15.923642 -20.094641 -5.473515 30.419348 -7.190798 1.735953 -1.9e-05 -8.16303 -2.4e-05 -1.86196 -22.861914 -6.168091 1e-06 -5e-06 -1e-06 -179.36203 -15.171613 -11.635515 5.690195 -0.024162 0.47489 -75.820946 0.098918 -23.981983 -4.882726 1.297855 2.097322 -0.999999 1e-06 1e-06 -4.801298 -28.355396 -19.806084 6.952523 0.108447 -0.020142 -68.948151 9.483879 -22.301521 -4.205394 0.769973 1.65393 -0.999998 1e-06 0.0 
0.0 0.0 0.0 0.0 -0.0 0.0 2.468992 94.482651 -2.415463 93.916977 -4.261936 88.436943 -3.430804 -4.465023 -0.141319 -11.808448 -1.304353 0.283055 13.987558 -0.736957 -1.529505 14.613794 5.574603 1.612807 -2.75281 -0.971548 -4.430121 -30.784927 -2.858793 -5.473574 6e-06 0.0 0.0 -0.146742 -0.002495 -0.061498 -0.160253 -0.00132 -0.056387 -0.111716 -0.010599 -0.074861 -51.945854 -71.296936 60.080429 -8.5174 -13.796556 -11.170195 13.473371 -0.333428 -0.336661 -15.091486 4.947744 -6.773233 17.636559 -26.322651 52.411327 -19.466715 -14.395568 29.410511 -6e-06 -8.774826 2e-06 15.889187 -18.80624 6.132403 -0.609776 -1.795657 -3.889336 -4.807083 -11.04681 -2.937881 2.9e-05 -20.976038 -5.2e-05 -5.0199 -25.033642 -4.031978 5e-06 1e-06 2e-06 -10.634521 -5.686976 -3.565605 10.573277 -17.922945 -3.11394 1.5e-05 -13.821224 -2.6e-05 -0.501681 -31.181618 -4.027116 -11.422976 -58.702053 7.04115 -13.982698 -7.150203 -2.875062 13.772718 -8.401491 -3.218262 0.347788 -34.21159 0.771577 -0.963005 -17.733433 2.621013 0.0 -1e-06 -1e-06 -17.346384 -20.095222 -4.201832 21.757536 -1.638372 3.86643 6e-06 -6.338826 -1.1e-05 -1.697528 -22.591808 -6.194108 1e-06 -5e-06 -1e-06 103.108238 -75.439606 83.734947 0.335102 -9.138724 -22.847481 13.577233 0.436597 -0.066095 -2.973754 7.106052 -6.970001 22.182089 -20.376007 49.933651 -16.701866 -16.74358 28.476763 2e-06 -12.690643 1.7e-05 15.011281 -17.518274 3.033415 -0.105922 -1.513858 -4.275902 -5.039053 -5.612893 -2.953583 -1e-06 -11.020584 -9e-06 -6.111317 -15.895483 -3.840536 -1e-06 -1e-06 1e-06 -10.283378 -5.680303 -4.341865 11.028308 -11.30243 -2.372654 -1.384264 -14.238657 -6.320193 -0.625418 -26.924423 -3.827677 -4.726696 -49.419559 -3.737836 -13.708532 -7.363496 -3.720966 18.141176 -14.052771 -3.242703 -9e-06 -18.787376 -1e-06 -0.429732 -8.456121 2.555535 1e-06 4e-06 1e-06 -15.923543 -20.09453 -5.473632 30.419258 -7.190814 1.735908 -9e-06 -8.16297 7e-06 -1.861913 -22.861671 -6.168006 -1e-06 -2e-06 -1e-06 -179.352142 -15.408943 -11.637083 5.648643 -0.029651 0.48707 -75.642929 -0.164244 -24.130629 -4.982048 1.30455 2.09293 -0.999999 1e-06 1e-06 -5.221924 -28.199015 -19.649 7.41641 0.120225 0.029617 -69.11512 9.586061 -22.245003 -4.326997 0.768779 1.651977 -1.0 -2e-06 -0.0 
0.0 0.0 0.0 0.0 -0.0 0.0 2.304651 94.513222 -2.453739 93.739952 -4.289002 88.241714 -3.280389 -4.389512 -0.192234 -11.753119 -1.315974 0.258226 13.990962 -0.554848 -1.541157 14.328603 5.555425 1.541166 -2.722521 -0.933533 -4.192559 -30.726799 -2.906179 -5.237972 6e-06 1e-06 1e-06 -0.149848 -0.004908 -0.06318 -0.14198 0.000764 -0.060364 -0.099692 -0.016828 -0.074616 -51.399155 -71.321754 59.554989 -8.86869 -14.25501 -11.54673 13.544881 -0.240211 -0.298928 -14.827405 4.97942 -6.719079 17.636755 -26.323111 52.411606 -19.466854 -14.395756 29.410658 1e-05 -8.774934 4e-06 15.83646 -18.78875 6.21443 -0.60978 -1.795669 -3.889355 -4.807151 -11.04696 -2.937853 -4.1e-05 -20.976377 4.7e-05 -5.020135 -25.034094 -4.031887 8e-06 1e-06 -1e-06 -10.634624 -5.687032 -3.565598 10.573371 -17.923189 -3.113915 -2.6e-05 -13.821451 2.1e-05 -0.501875 -31.182241 -4.027041 -11.45299 -58.780773 7.16017 -13.982834 -7.150276 -2.875041 13.772868 -8.401587 -3.218271 0.347647 -34.212223 0.771736 -0.963092 -17.733776 2.621082 0.0 1e-06 -0.0 -17.3466 -20.095438 -4.201755 21.757792 -1.63837 3.866454 -7e-06 -6.338934 7e-06 -1.697663 -22.592253 -6.19408 1e-06 -4e-06 -3e-06 102.987823 -75.524132 83.882347 0.648753 -9.553308 -23.27453 13.407764 0.385057 -0.054194 -2.835864 7.019074 -7.511527 22.182301 -20.376148 49.933842 -16.702003 -16.743702 28.476894 1e-05 -12.690764 5e-06 14.962363 -17.47801 3.063354 -0.105922 -1.513871 -4.275923 -5.039101 -5.612948 -2.953591 -8e-06 -11.020701 -0.0 -6.111407 -15.895658 -3.84054 -0.0 -2e-06 1e-06 -10.283465 -5.680356 -4.341879 11.028401 -11.302537 -2.372661 -1.384293 -14.238809 -6.320223 -0.625457 -26.924742 -3.827701 -4.7377 -49.300987 -3.681128 -13.708651 -7.363564 -3.72097 18.141331 -14.052901 -3.242714 -1.5e-05 -18.787575 -4e-06 -0.429731 -8.456209 2.555549 1e-06 1e-06 0.0 -15.923701 -20.094717 -5.473623 30.419525 -7.19088 1.735942 -7e-06 -8.163055 -2e-06 -1.861933 -22.861948 -6.168078 -1e-06 -4e-06 0.0 -179.384232 -15.723839 -11.650468 5.683721 -0.035756 0.50286 -75.467918 -0.431497 -24.28179 -5.101892 1.312885 2.087888 -1.000007 1e-06 -0.0 -5.777569 -28.003935 -19.374006 8.066175 0.134764 0.083378 -69.352585 9.702207 -22.217628 -4.471232 0.767674 1.6502 -1.000004 -0.0 -0.0 
0.0 0.0 0.0 0.0 -0.0 0.0 2.088353 94.554642 -2.52488 93.507172 -4.334973 88.006172 -3.095612 -4.271079 -0.237978 -11.68818 -1.320179 0.227656 14.024024 -0.352618 -1.542814 14.052216 5.524358 1.465566 -2.682413 -0.878933 -3.930457 -30.662512 -2.967094 -4.996303 6e-06 0.0 1e-06 -0.159066 -0.00671 -0.065795 -0.119664 0.001487 -0.067109 -0.085894 -0.020226 -0.073526 -50.926186 -71.36364 59.157246 -9.29209 -14.863971 -11.820415 13.649 -0.113635 -0.246546 -14.553267 4.948464 -6.952432 17.636642 -26.322929 52.411594 -19.46686 -14.395662 29.410679 -0.0 -8.77489 5e-06 15.839852 -18.764172 6.273397 -0.609777 -1.79567 -3.889355 -4.807121 -11.04693 -2.93788 -7e-06 -20.976305 -1.6e-05 -5.020022 -25.034016 -4.031949 7e-06 -2e-06 -1e-06 -10.634579 -5.687026 -3.565613 10.573333 -17.92313 -3.113949 -2e-06 -13.821388 -1.5e-05 -0.501748 -31.182077 -4.02712 -11.466108 -58.892494 7.274551 -13.982772 -7.150266 -2.87506 13.772807 -8.40157 -3.218282 0.347735 -34.212074 0.77162 -0.963035 -17.733681 2.621034 1e-06 -2e-06 0.0 -17.346506 -20.095402 -4.201806 21.757683 -1.638368 3.866443 -0.0 -6.338906 -8e-06 -1.697576 -22.592152 -6.194141 1e-06 -2e-06 -1e-06 102.610703 -75.619804 84.289848 1.050558 -10.073763 -23.980068 13.338173 0.318885 -0.054203 -2.630117 6.991391 -8.186802 22.182171 -20.37606 49.93372 -16.701916 -16.743616 28.476786 -0.0 -12.69068 1e-05 14.910238 -17.420057 3.113533 -0.105922 -1.513864 -4.27591 -5.03907 -5.612913 -2.953585 -0.0 -11.02062 -6e-06 -6.111338 -15.895518 -3.840532 1e-06 1e-06 1e-06 -10.283413 -5.680328 -4.341871 11.028341 -11.302469 -2.372654 -1.384273 -14.238704 -6.320197 -0.625424 -26.924503 -3.827676 -4.701325 -49.19165 -3.667004 -13.708581 -7.363528 -3.720968 18.141232 -14.052818 -3.242708 -4e-06 -18.787428 -4e-06 -0.429726 -8.456136 2.555539 1e-06 -2e-06 1e-06 -15.923612 -20.094614 -5.473626 30.419348 -7.190838 1.735924 -5e-06 -8.162991 2e-06 -1.861907 -22.861725 -6.168019 0.0 -2e-06 -2e-06 -179.500488 -16.150175 -11.664155 5.829873 -0.042466 0.505819 -75.265511 -0.680434 -24.457861 -5.247202 1.329968 2.085067 -1.000005 2e-06 0.0 -6.553575 -27.759363 -18.966469 8.987349 0.148496 0.133697 -69.660828 9.832106 -22.188128 -4.638302 0.770928 1.651152 -1.000006 -0.0 -0.0 
